<?xml version="1.0" encoding="UTF-8" standalone="no"?><!DOCTYPE svg PUBLIC "-//W3C//DTD SVG 1.1//EN" "http://www.w3.org/Graphics/SVG/1.1/DTD/svg11.dtd"><svg width="100%" height="100%" viewBox="0 0 2067 1021" version="1.1" xmlns="http://www.w3.org/2000/svg" xmlns:xlink="http://www.w3.org/1999/xlink" xml:space="preserve" xmlns:serif="http://www.serif.com/" style="fill-rule:evenodd;clip-rule:evenodd;stroke-linejoin:round;stroke-miterlimit:2;"><g><g><g><path d="M360.417,428.379c2.083,0.933 3.494,2.518 4.253,4.775c0.738,2.213 0.651,4.34 -0.26,6.423c-29.861,64.301 -59.614,118.707 -89.236,163.281c-29.579,44.553 -57.965,78.408 -85.157,101.563c-27.213,23.134 -52.604,34.722 -76.215,34.722c-6.901,0 -13.628,-1.041 -20.226,-3.125c-16.145,-4.752 -29.839,-15.364 -41.059,-31.857c-11.176,-16.45 -19.683,-37.5 -25.52,-63.195c-5.86,-25.694 -8.768,-55.078 -8.768,-88.108c0,-33.029 3.147,-68.836 9.462,-107.378c4.167,-26.042 10.113,-53.776 17.882,-83.247c7.812,-29.448 16.623,-57.921 26.476,-85.416c5.664,-15.495 12.456,-32.465 20.399,-50.868c7.921,-18.403 16.797,-36.567 26.649,-54.514c9.896,-17.925 20.834,-34.071 32.813,-48.438c9.548,-11.632 18.142,-19.748 25.781,-24.392c7.639,-4.622 14.28,-7.075 19.965,-7.378c5.664,-0.348 10.439,0.39 14.323,2.17c9.831,4.817 16.775,14.713 20.834,29.687c4.036,14.931 6.076,33.464 6.076,55.556c-0,22.113 -1.606,46.484 -4.774,73.09c-3.125,26.628 -7.292,54.058 -12.5,82.292c-5.209,28.255 -10.829,55.816 -16.841,82.725c-0.586,2.084 -1.909,3.82 -3.993,5.209c-2.083,1.345 -4.166,1.692 -6.25,1.041c-2.43,-0.564 -4.318,-1.823 -5.642,-3.732c-1.346,-1.953 -1.714,-4.124 -1.129,-6.511c11.676,-51.736 20.139,-96.202 25.348,-133.42c5.208,-37.261 7.942,-67.99 8.246,-92.187c0.347,-24.176 -1.085,-42.557 -4.253,-55.122c-3.125,-12.543 -7.379,-20.182 -12.761,-22.917c-4.166,-2.083 -9.7,-0.868 -16.58,3.646c-6.901,4.471 -14.366,11.459 -22.395,21.007c-11.415,13.781 -22.353,30.1 -32.813,48.959c-10.417,18.815 -20.204,39.366 -29.34,61.632c-9.093,22.287 -17.448,45.225 -25.087,68.836c-7.639,23.611 -14.301,46.94 -19.965,69.966c-5.686,22.981 -10.157,44.661 -13.455,65.017c-5.968,36.176 -9.028,70.095 -9.202,101.736c-0.13,31.706 2.518,60.113 7.9,85.243c5.035,23.307 12.326,42.209 21.875,56.684c9.592,14.518 20.833,23.72 33.68,27.604c28.407,8.963 62.631,-7.465 102.691,-49.305c47.223,-49.371 96.268,-128.603 147.136,-237.674c0.868,-2.083 2.43,-3.559 4.687,-4.427c2.257,-0.911 4.558,-0.803 6.945,0.347Z" style="fill:#fdfdfa;fill-rule:nonzero;"/></g></g></g><g><g><g><path d="M473.91,112.668c3.863,5.729 3.928,17.274 0.174,34.635c-3.711,17.318 -11.415,38.759 -23.091,64.323c-11.632,25.521 -27.17,53.863 -46.614,84.982c-0.304,0.304 -0.586,0.586 -0.868,0.869c-7.813,31.662 -15.538,63.954 -23.177,96.875c-7.596,32.877 -14.822,65.169 -21.702,96.875c-6.901,31.662 -13.172,61.458 -18.837,89.409c-5.664,27.952 -10.503,52.821 -14.496,74.653c-4.037,21.81 -6.966,39.323 -8.767,52.517l0.868,0c2.387,0.868 4.08,2.344 5.121,4.427c1.042,2.127 1.129,4.384 0.261,6.771c-2.084,5.664 -4.254,10.808 -6.511,15.452c-2.257,4.622 -5.317,6.944 -9.201,6.944c-0.868,0 -1.91,-0.152 -3.125,-0.434c-2.713,-0.868 -4.644,-2.756 -5.816,-5.642c-1.215,-2.843 -1.346,-8.507 -0.434,-17.014c0.868,-8.507 2.821,-21.593 5.816,-39.236c5.382,-32.292 13.455,-74.458 24.219,-126.476c7.769,-36.458 15.885,-73.568 24.392,-111.371c8.507,-37.848 16.949,-74.328 25.347,-109.462c8.377,-35.113 16.45,-67.036 24.219,-95.747c1.497,-5.664 3.732,-13.563 6.684,-23.698c2.995,-10.178 6.445,-21.093 10.33,-32.725c3.928,-11.676 8.268,-22.917 13.021,-33.681c4.796,-10.764 9.743,-19.64 14.843,-26.649c5.078,-7.053 10.157,-11.046 15.191,-11.979c5.078,-0.868 9.137,0.933 12.153,5.382Zm-54.687,124.739c14.344,-26.91 24.414,-49.327 30.208,-67.274c5.838,-17.926 9.201,-30.946 10.069,-39.063c-4.166,6.033 -9.852,17.34 -17.014,33.941c-7.183,16.558 -14.93,40.69 -23.263,72.396Z" style="fill:#fdfdfa;fill-rule:nonzero;"/></g></g></g><g><g><g><path d="M541.644,430.636c2.083,1.216 3.32,3.017 3.732,5.382c0.456,2.387 0.109,4.644 -1.041,6.771c-5.73,8.984 -12.934,18.989 -21.615,30.035c-8.637,11.067 -18.034,21.593 -28.212,31.597c-10.134,10.026 -20.226,18.316 -30.295,24.913c-10.026,6.532 -19.184,9.809 -27.517,9.809c-3.603,0 -6.749,-0.586 -9.462,-1.736c-10.135,-4.514 -15.712,-15.364 -16.754,-32.552c-1.041,-17.187 2.453,-41.45 10.504,-72.83c0.564,-2.43 1.91,-4.21 3.993,-5.382c2.127,-1.215 4.253,-1.519 6.337,-0.955c2.365,0.651 4.123,1.997 5.295,4.08c1.215,2.084 1.519,4.167 0.955,6.25c-4.818,19.163 -7.813,34.354 -9.028,45.573c-1.172,11.176 -1.367,19.618 -0.608,25.347c0.738,5.686 1.867,9.506 3.386,11.459c1.497,1.909 2.387,2.864 2.691,2.864c3.863,1.801 9.548,0.521 17.014,-3.819c7.465,-4.34 15.82,-10.764 25.086,-19.271c9.31,-8.55 18.664,-18.424 28.039,-29.601c9.418,-11.219 17.882,-22.96 25.347,-35.243c1.497,-2.083 3.342,-3.342 5.555,-3.819c2.257,-0.456 4.449,-0.087 6.598,1.128Zm-105.903,-35.85c-5.968,-0.283 -9.028,-1.997 -9.202,-5.122c-0.13,-3.168 1.237,-6.38 4.08,-9.635c2.821,-3.299 5.751,-5.556 8.768,-6.771c4.731,-1.498 8.246,-1.215 10.503,0.868c2.257,2.083 3.299,4.774 3.125,8.073c-0.13,3.298 -1.606,6.315 -4.427,9.028c-2.843,2.669 -7.118,3.862 -12.847,3.559Z" style="fill:#fdfdfa;fill-rule:nonzero;"/></g></g></g><g><g><g><path d="M704.412,432.893c2.083,1.215 3.407,2.952 3.993,5.209c0.63,2.213 0.347,4.34 -0.868,6.423c-14.062,24.827 -26.714,43.902 -37.934,57.205c-11.176,13.325 -22.613,19.227 -34.288,17.708c-14.931,-1.779 -26.736,-17.925 -35.417,-48.437c-2.951,-9.831 -5.555,-16.927 -7.812,-21.268c-2.257,-4.34 -4.058,-7.031 -5.382,-8.072c-1.346,-1.042 -2.322,-1.563 -2.952,-1.563c-0.868,-0.347 -2.669,0.564 -5.382,2.691c-2.669,2.083 -6.553,6.727 -11.631,13.889c-5.1,7.183 -11.372,18.316 -18.837,33.42c-7.466,15.104 -16.58,35.807 -27.344,62.066c-1.497,3.581 -4.036,5.382 -7.639,5.382c-0.868,-0 -1.606,-0.152 -2.257,-0.434c-5.078,-1.215 -7.313,-4.384 -6.684,-9.462c1.519,-12.218 4.21,-26.389 8.073,-42.535c3.885,-16.145 8.138,-32.573 12.76,-49.305c4.623,-16.775 8.876,-31.728 12.761,-44.879c0.911,-2.994 1.736,-5.772 2.43,-8.333c0.738,-2.539 1.433,-4.991 2.084,-7.378c0.868,-2.366 2.343,-4.08 4.427,-5.122c2.127,-1.042 4.253,-1.259 6.337,-0.694c2.365,0.586 4.123,1.953 5.295,4.079c1.215,2.084 1.389,4.319 0.521,6.685c-0.586,2.387 -1.259,4.839 -1.997,7.378c-0.759,2.561 -1.606,5.339 -2.517,8.333c-2.084,7.769 -4.492,16.276 -7.205,25.521c-2.669,9.267 -5.339,18.707 -7.986,28.299c10.113,-19.141 18.771,-31.858 25.955,-38.108c7.161,-6.293 13.758,-9.31 19.791,-9.028c8.334,0.586 14.887,5.209 19.705,13.889c4.796,8.681 8.811,18.707 12.066,30.035c4.514,15.582 8.702,25.477 12.587,29.687c3.863,4.167 6.706,6.25 8.507,6.25c3.863,0.586 8.42,-1.584 13.628,-6.51c5.252,-4.904 10.504,-11.198 15.712,-18.837c5.252,-7.639 10.2,-15.191 14.844,-22.656c4.622,-7.465 8.116,-13.585 10.503,-18.403c1.216,-2.083 2.995,-3.407 5.382,-3.993c2.431,-0.629 4.688,-0.347 6.771,0.868Z" style="fill:#fdfdfa;fill-rule:nonzero;"/></g></g></g><g><g><g><path d="M1062.26,268.31c1.497,1.801 2.105,3.906 1.823,6.337c-0.304,2.387 -1.519,4.318 -3.646,5.816c-3.602,2.387 -7.009,2.213 -10.243,-0.521c-3.95,-1.432 -12.847,-2.452 -26.736,-3.038c-13.889,-0.63 -31.315,-0.999 -52.257,-1.129c-20.898,-0.173 -43.902,-0.108 -69.01,0.174c-25.131,0.304 -50.912,0.673 -77.344,1.128c-26.454,0.478 -52.083,0.999 -76.91,1.563c-9.266,38.845 -18.989,81.054 -29.166,126.649c-10.2,45.616 -20.204,91.884 -30.035,138.802c-12.847,61.567 -22.765,112.088 -29.775,151.563c-7.052,39.453 -11.631,68.012 -13.715,85.677c0.586,-0 1.172,0.13 1.736,0.434c2.431,0.564 4.124,1.996 5.035,4.253c0.868,2.257 0.846,4.427 -0.087,6.511c-1.779,5.078 -3.776,9.809 -5.989,14.149c-2.257,4.34 -5.317,6.51 -9.202,6.51c-0.911,0 -1.996,-0.152 -3.212,-0.434c-4.166,-1.519 -6.445,-4.752 -6.857,-9.722c-0.456,-4.926 -0.109,-11.719 1.041,-20.399c1.216,-12.565 3.907,-30.643 8.073,-54.254c3.603,-22.113 8.247,-47.981 13.976,-77.604c5.686,-29.579 12.24,-61.979 19.705,-97.222c9.852,-47.852 19.987,-95.399 30.469,-142.622c10.46,-47.222 20.486,-91.167 30.034,-131.857c-14.366,0.304 -27.951,0.607 -40.798,0.955c-12.847,0.303 -24.501,0.586 -34.983,0.868c-20.009,0.586 -37.5,1.02 -52.43,1.302c-14.974,0.304 -25.608,0.434 -31.858,0.434c-2.365,-0 -4.362,-0.803 -5.99,-2.431c-1.671,-1.606 -2.517,-3.646 -2.517,-6.076c0,-2.366 0.846,-4.362 2.517,-5.99c1.628,-1.671 3.625,-2.517 5.99,-2.517c6.25,-0 16.797,-0.195 31.597,-0.608c14.822,-0.455 32.248,-0.998 52.257,-1.649c14.366,-0.282 28.255,-0.564 41.667,-0.868c13.476,-0.282 26.497,-0.564 39.062,-0.868c4.449,-19.141 8.854,-37.175 13.195,-54.08c4.34,-16.884 8.442,-32.378 12.326,-46.441c0.629,-2.365 1.997,-4.123 4.08,-5.295c2.083,-1.215 4.167,-1.519 6.25,-0.955c2.365,0.586 4.167,1.953 5.382,4.08c1.215,2.083 1.497,4.318 0.868,6.684c-7.183,26.628 -15.408,58.463 -24.653,95.486c46.637,-0.868 86.545,-1.519 119.705,-1.997c33.203,-0.455 61.024,-0.694 83.42,-0.694c22.439,0 40.625,0.326 54.514,0.955c13.889,0.586 24.414,1.259 31.597,1.996c7.162,0.76 12.262,1.737 15.278,2.952c2.995,1.172 4.948,2.495 5.816,3.993Z" style="fill:#fdfdfa;fill-rule:nonzero;"/></g></g></g><g><g><g><path d="M1319.22,430.202c1.498,2.084 2.019,4.254 1.563,6.511c-0.412,2.257 -1.693,4.123 -3.819,5.555c-46.311,33.225 -88.607,64.627 -126.91,94.184c3.928,12.262 4.383,25.716 1.389,40.365c-4.818,25.39 -13.433,49.088 -25.868,71.094c-12.392,21.983 -26.888,42.013 -43.49,60.069c-16.558,18.099 -33.898,33.637 -51.996,46.615c-18.056,13.02 -35.309,23.177 -51.737,30.468c-16.449,7.335 -30.642,11.48 -42.621,12.414c-1.801,0.282 -3.451,0.434 -4.948,0.434c-9.267,-0 -15.842,-1.888 -19.705,-5.643c-3.884,-3.711 -6.423,-7.205 -7.639,-10.503c-6.901,-18.815 9.158,-49.827 48.177,-93.056c39.063,-43.186 98.199,-95.725 177.431,-157.639c-9.896,-17.578 -29.731,-33.854 -59.462,-48.784c-29.753,-14.974 -69.141,-32.335 -118.142,-52.084c-5.686,-2.365 -11.524,-4.731 -17.535,-7.118c-5.968,-2.43 -12.066,-4.969 -18.316,-7.639c-21.528,-8.962 -36.502,-21.05 -44.878,-36.284c-8.399,-15.278 -9.441,-32.77 -3.125,-52.518c4.73,-15.278 13.107,-30.816 25.086,-46.614c11.98,-15.842 26.476,-31.619 43.49,-47.309c17.057,-15.734 35.612,-30.686 55.642,-44.879c20.009,-14.236 40.473,-27.17 61.372,-38.802c20.942,-11.675 41.428,-21.549 61.458,-29.601c20.009,-8.094 38.477,-13.758 55.382,-17.014c16.884,-3.298 31.185,-3.602 42.882,-0.954c4.731,1.215 10.026,3.472 15.885,6.77c5.838,3.299 10.461,8.638 13.889,15.973c3.473,7.291 4.449,17.361 2.952,30.208c-0.651,2.387 -1.867,4.253 -3.646,5.642c-1.801,1.346 -3.885,1.867 -6.25,1.563c-2.387,-0.347 -4.319,-1.476 -5.816,-3.386c-1.519,-1.953 -2.127,-4.123 -1.823,-6.51c1.78,-12.543 0.434,-20.92 -4.08,-25.087c-4.47,-4.21 -9.375,-6.901 -14.757,-8.073c-11.35,-2.712 -26.367,-1.823 -45.052,2.691c-18.706,4.471 -39.562,12.023 -62.587,22.657c-22.981,10.59 -46.593,23.676 -70.833,39.236c-25.694,16.102 -48.785,32.899 -69.271,50.434c-20.486,17.491 -37.391,34.592 -50.694,51.302c-13.325,16.732 -22.201,32.27 -26.65,46.614c-9.895,30.86 2.8,53.603 38.108,68.229c6.293,2.388 12.348,4.775 18.142,7.205c5.838,2.388 11.741,4.753 17.709,7.118c30.208,12.283 57.639,23.872 82.291,34.809c24.653,10.895 45.704,22.027 63.195,33.421c17.535,11.349 30.642,24.023 39.323,38.02c37.673,-29.275 79.08,-59.917 124.219,-91.927c2.083,-1.497 4.21,-2.018 6.423,-1.562c2.257,0.477 4.123,1.606 5.642,3.385Zm-144.357,143.056c1.779,-8.985 1.931,-17.34 0.434,-25.087c-63.672,49.87 -114.193,93.793 -151.563,131.771c-21.831,22.439 -38.585,42.404 -50.26,59.896c-11.632,17.469 -16.276,29.514 -13.889,36.111c0.912,2.365 2.995,3.776 6.25,4.253c3.299,0.456 6.163,0.543 8.594,0.261c9.831,-0.651 22.222,-4.406 37.153,-11.285c14.974,-6.836 30.837,-16.32 47.569,-28.472c16.71,-12.11 33.008,-26.519 48.872,-43.229c15.842,-16.732 29.73,-35.569 41.666,-56.511c11.979,-20.963 20.356,-43.533 25.174,-67.708Z" style="fill:#fdfdfa;fill-rule:nonzero;"/></g></g></g><g><g><g><path d="M1554.73,432.459c1.78,1.519 2.735,3.451 2.865,5.816c0.174,2.387 -0.499,4.471 -1.997,6.25c-37.977,44.575 -68.012,62.652 -90.104,54.254c-15.863,-5.947 -24.392,-24.935 -25.607,-56.945c-3.299,6.033 -6.836,12.847 -10.591,20.486c-3.711,7.596 -6.749,13.781 -9.114,18.577c-1.801,4.47 -3.603,8.485 -5.382,12.066c-1.801,3.602 -3.451,6.597 -4.948,9.027c-0.868,1.802 -2.431,4.406 -4.688,7.813c-2.257,3.429 -5.121,6.402 -8.593,8.941c-3.429,2.561 -7.357,3.255 -11.806,2.083c-5.382,-1.497 -9.44,-5.469 -12.153,-11.892c-2.669,-6.424 -4.318,-13.455 -4.948,-21.094c-0.586,-7.639 -0.868,-13.845 -0.868,-18.663l0,-11.198c0,-3.581 0.131,-6.858 0.434,-9.809c-10.481,14.931 -20.486,30.425 -30.034,46.441c-9.549,15.972 -19.705,34.266 -30.469,54.861c-3.602,6.879 -7.465,10.33 -11.632,10.33c-1.497,-0 -2.865,-0.477 -4.08,-1.389c-1.497,-0.586 -2.821,-1.541 -3.993,-2.865c-1.215,-1.345 -1.866,-4.036 -1.996,-8.072c-0.174,-4.059 0.412,-10.244 1.736,-18.577c1.345,-8.377 3.949,-20.052 7.812,-34.982c4.514,-18.273 9.831,-36.372 15.972,-54.254c6.12,-17.925 12.327,-34.071 18.577,-48.437c0.911,-2.431 2.474,-4.08 4.687,-4.948c2.257,-0.912 4.427,-0.782 6.511,0.434c2.43,0.868 3.993,2.43 4.687,4.687c0.738,2.257 0.695,4.427 -0.173,6.511c-8.117,18.815 -15.365,38.454 -21.789,58.941c-6.423,20.486 -11.436,38.368 -15.017,53.645c9.245,-16.428 18.359,-31.727 27.344,-45.92c8.962,-14.236 18.403,-28.081 28.298,-41.58c0.868,-1.15 2.431,-2.777 4.688,-4.861c2.257,-2.126 5.317,-2.604 9.201,-1.389c3.863,1.519 6.033,4.341 6.511,8.507c0.455,4.167 0.542,11.198 0.26,21.094c0,3.299 -0.087,6.901 -0.26,10.764c-0.174,3.885 -0.261,7.899 -0.261,12.066c0,8.984 0.608,16.319 1.823,22.049c1.215,5.685 2.257,9.548 3.125,11.631c0.63,-0.564 1.476,-1.605 2.518,-3.125c1.041,-1.497 2.3,-3.428 3.819,-5.815c1.15,-2.127 2.539,-4.992 4.167,-8.594c1.671,-3.581 3.559,-7.466 5.642,-11.632c7.747,-16.71 14.084,-29.557 19.01,-38.542c4.97,-8.963 9.245,-15.104 12.848,-18.403c3.58,-3.298 7.313,-4.47 11.198,-3.559c4.796,1.172 7.573,4.059 8.333,8.681c0.738,4.644 1.128,8.312 1.128,11.024c-0.347,14.063 0.738,25.434 3.299,34.115c2.539,8.637 6.207,13.845 11.024,15.625c5.382,2.148 13.976,-0.217 25.782,-7.118c11.805,-6.88 26.822,-20.942 45.052,-42.188c1.497,-1.779 3.428,-2.734 5.816,-2.864c2.43,-0.174 4.535,0.499 6.336,1.996Z" style="fill:#fdfdfa;fill-rule:nonzero;"/></g></g></g><g><g><g><path d="M1666.86,430.636c2.083,1.216 3.32,3.017 3.732,5.382c0.456,2.387 0.109,4.644 -1.041,6.771c-5.73,8.984 -12.934,18.989 -21.615,30.035c-8.637,11.067 -18.034,21.593 -28.212,31.597c-10.134,10.026 -20.225,18.316 -30.295,24.913c-10.026,6.532 -19.184,9.809 -27.517,9.809c-3.603,0 -6.749,-0.586 -9.462,-1.736c-10.135,-4.514 -15.712,-15.364 -16.754,-32.552c-1.041,-17.187 2.453,-41.45 10.504,-72.83c0.564,-2.43 1.91,-4.21 3.993,-5.382c2.127,-1.215 4.253,-1.519 6.337,-0.955c2.365,0.651 4.123,1.997 5.295,4.08c1.215,2.084 1.519,4.167 0.955,6.25c-4.818,19.163 -7.813,34.354 -9.028,45.573c-1.172,11.176 -1.367,19.618 -0.608,25.347c0.738,5.686 1.867,9.506 3.386,11.459c1.497,1.909 2.387,2.864 2.691,2.864c3.863,1.801 9.548,0.521 17.014,-3.819c7.465,-4.34 15.82,-10.764 25.086,-19.271c9.31,-8.55 18.664,-18.424 28.039,-29.601c9.418,-11.219 17.882,-22.96 25.347,-35.243c1.497,-2.083 3.342,-3.342 5.555,-3.819c2.257,-0.456 4.449,-0.087 6.598,1.128Zm-105.903,-35.85c-5.968,-0.283 -9.028,-1.997 -9.202,-5.122c-0.13,-3.168 1.237,-6.38 4.08,-9.635c2.822,-3.299 5.751,-5.556 8.768,-6.771c4.731,-1.498 8.246,-1.215 10.503,0.868c2.257,2.083 3.299,4.774 3.125,8.073c-0.13,3.298 -1.606,6.315 -4.427,9.028c-2.843,2.669 -7.118,3.862 -12.847,3.559Z" style="fill:#fdfdfa;fill-rule:nonzero;"/></g></g></g><g><g><g><path d="M2027.37,268.31c1.498,1.801 2.105,3.906 1.823,6.337c-0.304,2.387 -1.519,4.318 -3.646,5.816c-3.602,2.387 -7.009,2.213 -10.243,-0.521c-3.949,-1.432 -12.847,-2.452 -26.736,-3.038c-13.889,-0.63 -31.315,-0.999 -52.257,-1.129c-20.898,-0.173 -43.902,-0.108 -69.01,0.174c-25.13,0.304 -50.912,0.673 -77.344,1.128c-26.454,0.478 -52.083,0.999 -76.91,1.563c-9.266,38.845 -18.988,81.054 -29.166,126.649c-10.2,45.616 -20.204,91.884 -30.035,138.802c-12.847,61.567 -22.765,112.088 -29.774,151.563c-7.053,39.453 -11.632,68.012 -13.716,85.677c0.586,-0 1.172,0.13 1.737,0.434c2.43,0.564 4.123,1.996 5.034,4.253c0.868,2.257 0.847,4.427 -0.086,6.511c-1.78,5.078 -3.777,9.809 -5.99,14.149c-2.257,4.34 -5.317,6.51 -9.201,6.51c-0.912,0 -1.997,-0.152 -3.212,-0.434c-4.167,-1.519 -6.446,-4.752 -6.858,-9.722c-0.456,-4.926 -0.108,-11.719 1.042,-20.399c1.215,-12.565 3.906,-30.643 8.073,-54.254c3.602,-22.113 8.246,-47.981 13.975,-77.604c5.686,-29.579 12.24,-61.979 19.705,-97.222c9.853,-47.852 19.987,-95.399 30.469,-142.622c10.46,-47.222 20.486,-91.167 30.035,-131.857c-14.367,0.304 -27.952,0.607 -40.799,0.955c-12.847,0.303 -24.501,0.586 -34.983,0.868c-20.008,0.586 -37.5,1.02 -52.43,1.302c-14.974,0.304 -25.608,0.434 -31.858,0.434c-2.365,-0 -4.362,-0.803 -5.989,-2.431c-1.671,-1.606 -2.518,-3.646 -2.518,-6.076c0,-2.366 0.847,-4.362 2.518,-5.99c1.627,-1.671 3.624,-2.517 5.989,-2.517c6.25,-0 16.797,-0.195 31.597,-0.608c14.823,-0.455 32.249,-0.998 52.257,-1.649c14.367,-0.282 28.256,-0.564 41.667,-0.868c13.477,-0.282 26.497,-0.564 39.063,-0.868c4.448,-19.141 8.854,-37.175 13.194,-54.08c4.34,-16.884 8.442,-32.378 12.326,-46.441c0.63,-2.365 1.997,-4.123 4.08,-5.295c2.084,-1.215 4.167,-1.519 6.25,-0.955c2.366,0.586 4.167,1.953 5.382,4.08c1.216,2.083 1.498,4.318 0.868,6.684c-7.183,26.628 -15.408,58.463 -24.652,95.486c46.636,-0.868 86.545,-1.519 119.704,-1.997c33.203,-0.455 61.025,-0.694 83.421,-0.694c22.439,0 40.625,0.326 54.513,0.955c13.889,0.586 24.414,1.259 31.598,1.996c7.161,0.76 12.261,1.737 15.277,2.952c2.995,1.172 4.948,2.495 5.816,3.993Z" style="fill:#fdfdfa;fill-rule:nonzero;"/></g></g></g><g><g><g><path d="M1921.13,430.202c1.779,1.216 2.973,3.017 3.559,5.382c0.564,2.387 0.282,4.601 -0.868,6.684c-14.367,23.047 -27.084,41.732 -38.195,56.077c-11.068,14.366 -20.551,25.26 -28.472,32.725c-7.878,7.466 -14.497,12.522 -19.879,15.191c-5.382,2.713 -9.722,4.08 -13.02,4.08c-3.299,0 -5.86,-0.152 -7.639,-0.434c-6.901,-1.801 -11.979,-5.903 -15.278,-12.326c-3.255,-6.424 -5.425,-13.043 -6.51,-19.879c-1.042,-6.879 -1.715,-12.109 -1.997,-15.712c-0.586,-10.46 -1.78,-17.491 -3.559,-21.093c-1.801,-3.581 -3.168,-5.382 -4.08,-5.382l-0.434,-0c-3.884,-0 -10.308,5.468 -19.271,16.406c-8.984,10.894 -19.509,27.995 -31.597,51.302c-12.109,23.307 -24.74,53.668 -37.934,91.059c-1.15,3.863 -3.841,5.816 -8.073,5.816l-1.736,0c-4.796,-1.215 -7.053,-4.232 -6.771,-9.028c0.304,-5.034 1.649,-14.149 4.08,-27.343c2.387,-13.151 5.599,-28.907 9.635,-47.309c4.059,-18.36 8.551,-38.282 13.455,-59.81c4.905,-21.527 9.983,-43.337 15.191,-65.451c5.252,-22.157 10.265,-43.316 15.018,-63.455c4.796,-20.182 9.136,-38.368 13.02,-54.514c3.863,-16.145 6.988,-29.08 9.375,-38.802c2.431,-9.722 3.646,-14.713 3.646,-15.017c6.88,-27.539 14.497,-52.604 22.83,-75.174c8.377,-22.569 16.688,-40.712 24.913,-54.427c8.203,-13.758 15.473,-21.267 21.789,-22.482c5.078,-0.868 8.962,0.651 11.631,4.513c4.167,5.968 3.777,18.468 -1.128,37.5c-4.926,18.989 -13.889,42.969 -26.91,71.962c-12.977,28.993 -29.492,61.437 -49.566,97.309c-5.382,22.396 -11.284,46.919 -17.708,73.525c-6.424,26.627 -12.717,53.385 -18.837,80.295c-6.141,26.909 -11.719,51.714 -16.753,74.392c8.029,-17.014 16.319,-32.4 24.826,-46.18c8.55,-13.759 17.101,-24.436 25.608,-32.032c8.507,-7.639 16.493,-11.024 23.958,-10.156c6.597,0.933 11.458,4.232 14.583,9.896c3.125,5.686 5.209,11.719 6.25,18.142c1.085,6.424 1.65,11.155 1.65,14.15c0.868,11.067 2.343,19.14 4.427,24.218c2.083,5.1 4.188,7.791 6.337,8.073c0.564,0.282 2.56,-0.087 5.989,-1.128c3.472,-1.042 8.551,-4.384 15.278,-10.07c6.706,-5.664 15.582,-15.451 26.649,-29.34c11.046,-13.932 24.501,-33.767 40.365,-59.462c1.215,-1.779 2.995,-2.973 5.382,-3.559c2.43,-0.629 4.687,-0.347 6.771,0.868Zm-91.927,-297.743c-5.1,7.465 -11.936,20.703 -20.487,39.67c-8.507,18.989 -17.079,44.77 -25.694,77.344c15.213,-30.208 26.324,-54.991 33.333,-74.392c7.053,-19.445 11.328,-33.637 12.848,-42.622Z" style="fill:#fdfdfa;fill-rule:nonzero;"/></g></g></g><g><g><g><path d="M559.267,855.667l0,14.931c-5.794,-2.778 -11.263,-4.818 -16.406,-6.163c-5.1,-1.389 -10.048,-2.084 -14.844,-2.084c-8.29,0 -14.67,1.628 -19.184,4.861c-4.514,3.19 -6.771,7.769 -6.771,13.716c0,4.991 1.476,8.745 4.427,11.284c2.995,2.561 8.703,4.601 17.101,6.163l9.201,1.823c11.329,2.214 19.705,6.033 25.087,11.459c5.426,5.447 8.16,12.76 8.16,21.962c-0,10.894 -3.689,19.162 -11.024,24.826c-7.292,5.621 -18.012,8.42 -32.118,8.42c-5.339,0 -11.003,-0.608 -17.014,-1.823c-6.033,-1.215 -12.24,-2.973 -18.663,-5.295l-0,-15.712c6.184,3.472 12.239,6.12 18.142,7.9c5.946,1.736 11.805,2.604 17.535,2.604c8.68,-0 15.386,-1.693 20.139,-5.122c4.73,-3.472 7.118,-8.355 7.118,-14.67c-0,-5.556 -1.715,-9.896 -5.122,-13.021c-3.429,-3.125 -8.984,-5.469 -16.667,-7.031l-9.288,-1.823c-11.415,-2.257 -19.661,-5.773 -24.739,-10.59c-5.1,-4.861 -7.639,-11.567 -7.639,-20.139c-0,-10.004 3.494,-17.882 10.503,-23.611c7.053,-5.729 16.754,-8.594 29.08,-8.594c5.252,-0 10.634,0.499 16.146,1.476c5.49,0.933 11.111,2.343 16.84,4.253Z" style="fill:#fdfdfa;fill-rule:nonzero;"/></g></g></g><g><g><g><path d="M621.982,889.869c-7.422,-0 -13.281,2.929 -17.622,8.767c-4.34,5.794 -6.51,13.759 -6.51,23.871c-0,10.135 2.127,18.121 6.424,23.959c4.34,5.794 10.243,8.68 17.708,8.68c7.4,0 13.281,-2.908 17.621,-8.767c4.341,-5.838 6.511,-13.802 6.511,-23.872c-0,-10.004 -2.17,-17.925 -6.511,-23.784c-4.34,-5.903 -10.221,-8.854 -17.621,-8.854Zm-0,-11.719c12.088,-0 21.571,3.949 28.472,11.805c6.88,7.813 10.33,18.664 10.33,32.552c0,13.846 -3.451,24.697 -10.33,32.553c-6.901,7.877 -16.384,11.805 -28.472,11.805c-12.109,0 -21.593,-3.928 -28.472,-11.805c-6.901,-7.856 -10.33,-18.707 -10.33,-32.553c-0,-13.888 3.429,-24.739 10.33,-32.552c6.879,-7.856 16.363,-11.805 28.472,-11.805Z" style="fill:#fdfdfa;fill-rule:nonzero;"/></g></g></g><g><g><g><path d="M726.635,847.247l0,11.545l-13.281,0c-4.992,0 -8.464,1.02 -10.417,3.038c-1.91,1.975 -2.864,5.599 -2.864,10.851l-0,7.465l22.829,0l0,10.764l-22.829,0l-0,73.785l-13.976,-0l-0,-73.785l-13.281,0l-0,-10.764l13.281,0l-0,-5.902c-0,-9.375 2.17,-16.19 6.51,-20.487c4.384,-4.34 11.372,-6.51 20.92,-6.51l13.108,0Z" style="fill:#fdfdfa;fill-rule:nonzero;"/></g></g></g><g><g><g><path d="M751.98,856.101l0,24.045l28.646,0l0,10.764l-28.646,0l0,45.92c0,6.901 0.912,11.328 2.778,13.282c1.91,1.974 5.751,2.951 11.545,2.951l14.323,-0l0,11.632l-14.323,-0c-10.72,-0 -18.12,-1.997 -22.222,-5.99c-4.058,-3.993 -6.076,-11.284 -6.076,-21.875l-0,-45.92l-10.157,0l0,-10.764l10.157,0l-0,-24.045l13.975,0Z" style="fill:#fdfdfa;fill-rule:nonzero;"/></g></g></g><g><g><g><path d="M790.807,880.146l13.889,0l17.361,65.973l17.275,-65.973l16.406,0l17.361,65.973l17.274,-65.973l13.889,0l-22.135,84.549l-16.407,-0l-18.142,-69.271l-18.316,69.271l-16.319,-0l-22.136,-84.549Z" style="fill:#fdfdfa;fill-rule:nonzero;"/></g></g></g><g><g><g><path d="M963.687,922.16c-11.176,0 -18.924,1.302 -23.264,3.906c-4.34,2.561 -6.511,6.923 -6.511,13.108c0,4.926 1.606,8.833 4.862,11.719c3.233,2.908 7.66,4.34 13.281,4.34c7.682,0 13.845,-2.713 18.489,-8.16c4.688,-5.425 7.032,-12.695 7.032,-21.788l-0,-3.125l-13.889,0Zm27.778,-5.729l-0,48.264l-13.889,-0l-0,-12.847c-3.19,5.165 -7.162,8.941 -11.893,11.371c-4.752,2.431 -10.547,3.646 -17.361,3.646c-8.68,0 -15.581,-2.43 -20.66,-7.292c-5.099,-4.861 -7.638,-11.328 -7.638,-19.444c-0,-9.549 3.168,-16.71 9.548,-21.528c6.359,-4.861 15.842,-7.291 28.472,-7.291l19.532,-0l-0,-1.303c-0,-6.423 -2.127,-11.371 -6.337,-14.843c-4.232,-3.516 -10.135,-5.295 -17.708,-5.295c-4.818,-0 -9.527,0.585 -14.15,1.736c-4.579,1.172 -8.984,2.908 -13.194,5.208l-0,-12.847c5.078,-1.953 10.004,-3.407 14.757,-4.341c4.796,-0.976 9.483,-1.475 14.062,-1.475c12.196,-0 21.311,3.19 27.344,9.548c6.076,6.316 9.115,15.886 9.115,28.733Z" style="fill:#fdfdfa;fill-rule:nonzero;"/></g></g></g><g><g><g><path d="M1069.01,893.167c-1.563,-0.911 -3.277,-1.584 -5.122,-1.996c-1.801,-0.456 -3.798,-0.695 -5.989,-0.695c-7.878,0 -13.933,2.583 -18.143,7.726c-4.166,5.1 -6.25,12.413 -6.25,21.962l0,44.531l-13.976,-0l0,-84.549l13.976,0l0,13.108c2.886,-5.078 6.684,-8.876 11.372,-11.372c4.687,-2.474 10.351,-3.732 17.014,-3.732c0.976,-0 2.04,0.065 3.211,0.173c1.151,0.131 2.431,0.304 3.82,0.521l0.087,14.323Z" style="fill:#fdfdfa;fill-rule:nonzero;"/></g></g></g><g><g><g><path d="M1155.92,918.948l0,6.771l-63.889,0c0.63,9.614 3.516,16.927 8.681,21.962c5.143,4.991 12.326,7.465 21.528,7.465c5.317,0 10.46,-0.651 15.451,-1.996c5.035,-1.324 10.026,-3.299 15.018,-5.903l-0,13.108c-5.035,2.148 -10.157,3.776 -15.365,4.861c-5.208,1.085 -10.504,1.649 -15.885,1.649c-13.542,0 -24.263,-3.906 -32.119,-11.719c-7.877,-7.856 -11.805,-18.489 -11.805,-31.857c-0,-13.889 3.733,-24.87 11.198,-32.986c7.509,-8.095 17.621,-12.153 30.295,-12.153c11.328,-0 20.312,3.689 26.91,11.024c6.64,7.292 9.982,17.231 9.982,29.774Zm-13.889,-4.079c-0.13,-7.574 -2.257,-13.629 -6.423,-18.143c-4.123,-4.557 -9.614,-6.857 -16.493,-6.857c-7.704,-0 -13.889,2.213 -18.577,6.597c-4.644,4.405 -7.335,10.568 -8.073,18.489l49.566,-0.086Z" style="fill:#fdfdfa;fill-rule:nonzero;"/></g></g></g><g><g><g><path d="M1228.47,852.021l71.268,0l-0,12.761l-56.077,-0l0,33.42l53.733,-0l-0,12.847l-53.733,0l0,40.799l57.379,-0l-0,12.847l-72.57,-0l0,-112.674Z" style="fill:#fdfdfa;fill-rule:nonzero;"/></g></g></g><g><g><g><path d="M1395.77,913.653l-0,51.042l-13.889,-0l-0,-50.608c-0,-7.986 -1.563,-13.932 -4.688,-17.882c-3.081,-3.993 -7.725,-5.989 -13.975,-5.989c-7.531,-0 -13.455,2.409 -17.795,7.205c-4.297,4.752 -6.424,11.263 -6.424,19.531l-0,47.743l-13.976,-0l0,-84.549l13.976,0l-0,13.108c3.299,-5.078 7.205,-8.876 11.719,-11.372c4.514,-2.474 9.679,-3.732 15.538,-3.732c9.722,-0 17.057,3.016 22.049,9.028c4.969,5.967 7.465,14.8 7.465,26.475Z" style="fill:#fdfdfa;fill-rule:nonzero;"/></g></g></g><g><g><g><path d="M1479.17,921.466c-0,-10.07 -2.083,-17.882 -6.25,-23.438c-4.167,-5.555 -9.983,-8.333 -17.448,-8.333c-7.465,-0 -13.281,2.778 -17.448,8.333c-4.167,5.556 -6.25,13.368 -6.25,23.438c0,10.026 2.083,17.795 6.25,23.35c4.167,5.513 9.983,8.247 17.448,8.247c7.465,-0 13.281,-2.734 17.448,-8.247c4.167,-5.555 6.25,-13.324 6.25,-23.35Zm13.889,32.725c-0,14.41 -3.212,25.109 -9.636,32.119c-6.38,6.987 -16.145,10.503 -29.34,10.503c-4.861,-0 -9.462,-0.391 -13.802,-1.128c-4.34,-0.695 -8.55,-1.802 -12.587,-3.299l0,-13.542c4.037,2.257 8.073,3.906 12.066,4.948c3.993,1.042 8.03,1.563 12.153,1.563c9.071,-0 15.885,-2.387 20.399,-7.118c4.558,-4.753 6.858,-11.936 6.858,-21.528l-0,-6.858c-2.908,4.992 -6.597,8.724 -11.111,11.198c-4.471,2.431 -9.788,3.646 -15.972,3.646c-10.417,-0 -18.816,-3.928 -25.174,-11.806c-6.315,-7.921 -9.462,-18.402 -9.462,-31.423c0,-13.064 3.147,-23.546 9.462,-31.424c6.358,-7.921 14.757,-11.892 25.174,-11.892c6.184,-0 11.501,1.258 15.972,3.732c4.514,2.431 8.203,6.142 11.111,11.112l-0,-12.848l13.889,0l-0,74.045Z" style="fill:#fdfdfa;fill-rule:nonzero;"/></g></g></g><g><g><g><path d="M1521.66,880.146l13.889,0l-0,84.549l-13.889,-0l0,-84.549Zm0,-32.899l13.889,0l-0,17.535l-13.889,-0l0,-17.535Z" style="fill:#fdfdfa;fill-rule:nonzero;"/></g></g></g><g><g><g><path d="M1634.83,913.653l0,51.042l-13.889,-0l0,-50.608c0,-7.986 -1.562,-13.932 -4.687,-17.882c-3.082,-3.993 -7.726,-5.989 -13.976,-5.989c-7.53,-0 -13.455,2.409 -17.795,7.205c-4.297,4.752 -6.424,11.263 -6.424,19.531l0,47.743l-13.975,-0l-0,-84.549l13.975,0l0,13.108c3.299,-5.078 7.205,-8.876 11.719,-11.372c4.514,-2.474 9.679,-3.732 15.538,-3.732c9.722,-0 17.057,3.016 22.049,9.028c4.969,5.967 7.465,14.8 7.465,26.475Z" style="fill:#fdfdfa;fill-rule:nonzero;"/></g></g></g><g><g><g><path d="M1734.9,918.948l-0,6.771l-63.889,0c0.629,9.614 3.516,16.927 8.681,21.962c5.143,4.991 12.326,7.465 21.527,7.465c5.317,0 10.46,-0.651 15.452,-1.996c5.034,-1.324 10.026,-3.299 15.017,-5.903l0,13.108c-5.035,2.148 -10.156,3.776 -15.364,4.861c-5.209,1.085 -10.504,1.649 -15.886,1.649c-13.542,0 -24.262,-3.906 -32.118,-11.719c-7.878,-7.856 -11.806,-18.489 -11.806,-31.857c0,-13.889 3.733,-24.87 11.198,-32.986c7.509,-8.095 17.622,-12.153 30.296,-12.153c11.328,-0 20.312,3.689 26.909,11.024c6.641,7.292 9.983,17.231 9.983,29.774Zm-13.889,-4.079c-0.13,-7.574 -2.257,-13.629 -6.424,-18.143c-4.123,-4.557 -9.613,-6.857 -16.493,-6.857c-7.704,-0 -13.889,2.213 -18.576,6.597c-4.644,4.405 -7.335,10.568 -8.073,18.489l49.566,-0.086Z" style="fill:#fdfdfa;fill-rule:nonzero;"/></g></g></g><g><g><g><path d="M1830.01,918.948l-0,6.771l-63.889,0c0.629,9.614 3.516,16.927 8.681,21.962c5.143,4.991 12.326,7.465 21.527,7.465c5.317,0 10.46,-0.651 15.452,-1.996c5.034,-1.324 10.026,-3.299 15.017,-5.903l0,13.108c-5.035,2.148 -10.156,3.776 -15.364,4.861c-5.209,1.085 -10.504,1.649 -15.886,1.649c-13.542,0 -24.262,-3.906 -32.118,-11.719c-7.878,-7.856 -11.805,-18.489 -11.805,-31.857c-0,-13.889 3.732,-24.87 11.197,-32.986c7.509,-8.095 17.622,-12.153 30.296,-12.153c11.328,-0 20.312,3.689 26.909,11.024c6.641,7.292 9.983,17.231 9.983,29.774Zm-13.889,-4.079c-0.13,-7.574 -2.257,-13.629 -6.424,-18.143c-4.123,-4.557 -9.613,-6.857 -16.493,-6.857c-7.704,-0 -13.889,2.213 -18.576,6.597c-4.644,4.405 -7.335,10.568 -8.073,18.489l49.566,-0.086Z" style="fill:#fdfdfa;fill-rule:nonzero;"/></g></g></g><g><g><g><path d="M1901.77,893.167c-1.562,-0.911 -3.277,-1.584 -5.121,-1.996c-1.801,-0.456 -3.798,-0.695 -5.99,-0.695c-7.877,0 -13.932,2.583 -18.142,7.726c-4.167,5.1 -6.25,12.413 -6.25,21.962l-0,44.531l-13.976,-0l0,-84.549l13.976,0l-0,13.108c2.886,-5.078 6.684,-8.876 11.371,-11.372c4.688,-2.474 10.352,-3.732 17.014,-3.732c0.977,-0 2.04,0.065 3.212,0.173c1.15,0.131 2.431,0.304 3.819,0.521l0.087,14.323Z" style="fill:#fdfdfa;fill-rule:nonzero;"/></g></g></g></svg>